<?xml version="1.0" standalone="no"?>
<!DOCTYPE svg PUBLIC "-//W3C//DTD SVG 20010904//EN"
 "http://www.w3.org/TR/2001/REC-SVG-20010904/DTD/svg10.dtd">
<svg version="1.0" xmlns="http://www.w3.org/2000/svg"
 width="1080.000000pt" height="1080.000000pt" viewBox="0 0 1080.000000 1080.000000"
 preserveAspectRatio="xMidYMid meet">

<g transform="translate(0.000000,1080.000000) scale(0.100000,-0.100000)"
fill="#000000" stroke="none">
<path d="M5185 10070 c-956 -44 -1886 -385 -2640 -969 -149 -115 -382 -320
-480 -422 -619 -644 -1033 -1404 -1226 -2252 -128 -565 -147 -1189 -54 -1772
138 -866 525 -1683 1115 -2355 134 -153 208 -227 365 -367 767 -687 1682
-1088 2705 -1188 223 -22 641 -22 860 0 1030 103 1937 501 2705 1188 213 190
368 357 554 597 551 711 875 1528 966 2440 22 222 22 638 0 860 -109 1090
-550 2044 -1315 2844 -94 99 -352 326 -490 432 -877 672 -1964 1014 -3065 964z
m625 -146 c1269 -119 2412 -746 3187 -1749 767 -993 1087 -2255 888 -3500
-291 -1822 -1673 -3295 -3476 -3705 -557 -127 -1168 -146 -1734 -55 -1932 312
-3448 1828 -3760 3760 -74 460 -76 958 -4 1425 174 1136 791 2181 1704 2890
907 703 2059 1040 3195 934z"/>
<path d="M5106 9697 c-17 -13 -18 -24 -6 -203 6 -104 16 -194 22 -201 15 -19
46 -16 57 5 6 11 7 87 3 201 -7 164 -9 184 -27 197 -23 17 -27 17 -49 1z"/>
<path d="M5408 9701 c-92 -30 -138 -96 -138 -197 0 -84 34 -154 92 -187 51
-30 129 -42 178 -27 31 9 39 7 77 -20 47 -34 56 -36 73 -16 12 15 6 23 -43 59
-17 12 -17 16 12 71 59 111 35 239 -54 291 -47 28 -149 41 -197 26z m148 -76
c48 -31 66 -108 44 -186 -15 -55 -33 -65 -69 -40 -33 23 -71 28 -71 8 0 -7 14
-21 31 -31 27 -16 29 -20 15 -28 -24 -13 -72 0 -106 28 -74 62 -60 223 22 259
39 18 99 13 134 -10z"/>
<path d="M4811 9670 c-152 -20 -187 -34 -161 -65 9 -11 29 -15 79 -13 l66 3
20 -155 c12 -85 24 -161 28 -168 12 -18 57 -15 64 4 3 9 -1 86 -11 171 -9 84
-14 158 -11 163 4 6 23 10 43 11 64 2 87 12 87 39 0 32 -19 33 -204 10z"/>
<path d="M5800 9658 c-9 -24 -30 -205 -30 -264 0 -91 63 -144 180 -151 78 -5
125 16 152 68 21 42 70 276 63 300 -11 34 -69 35 -79 1 -3 -9 -14 -71 -26
-137 -12 -66 -28 -130 -36 -142 -30 -46 -120 -40 -158 10 -20 27 -20 28 -3
168 20 152 17 169 -29 169 -16 0 -28 -8 -34 -22z"/>
<path d="M4528 9633 c-28 -7 -28 -29 -2 -159 14 -69 24 -128 21 -130 -2 -3
-61 47 -132 111 -130 118 -157 132 -189 99 -9 -8 -16 -18 -16 -22 0 -4 22 -85
48 -181 48 -174 62 -201 96 -188 22 9 20 41 -9 159 -14 55 -24 105 -22 111 2
6 56 -39 121 -99 65 -60 125 -112 135 -115 24 -9 61 8 61 29 0 23 -48 296 -61
343 -10 38 -22 48 -51 42z"/>
<path d="M6282 9578 c-5 -7 -27 -91 -47 -186 -33 -149 -36 -175 -24 -187 15
-14 231 -75 266 -75 22 0 33 16 26 37 -3 7 -29 20 -59 28 -30 9 -78 22 -108
31 l-53 15 13 55 c7 31 15 58 17 61 3 2 49 -8 102 -22 89 -25 99 -25 113 -11
25 25 1 40 -101 67 -49 12 -91 28 -94 35 -6 17 16 94 28 94 6 0 50 -11 99 -25
111 -31 140 -32 140 -5 0 25 -15 32 -158 70 -125 33 -145 36 -160 18z"/>
<path d="M3925 9470 c-41 -16 -44 -31 -51 -234 -7 -185 -6 -200 11 -212 13 -9
23 -10 36 -3 15 8 19 21 19 63 l0 54 86 31 87 32 34 -41 c36 -42 62 -50 82
-26 10 11 10 20 0 38 -17 32 -226 274 -252 293 -24 17 -24 17 -52 5z m90 -150
c32 -39 56 -72 54 -73 -17 -13 -119 -44 -123 -38 -5 7 4 181 9 181 2 0 29 -32
60 -70z"/>
<path d="M6726 9450 c-40 -12 -65 -38 -72 -75 -9 -49 17 -88 101 -150 64 -47
75 -59 75 -85 0 -63 -87 -78 -144 -25 -15 14 -26 35 -26 50 0 61 -51 90 -70
41 -23 -63 38 -143 132 -171 65 -19 74 -19 124 4 31 14 45 28 57 59 27 67 3
109 -105 183 -65 45 -84 83 -53 106 47 33 123 -2 145 -67 16 -47 40 -61 65
-40 39 33 -1 107 -77 143 -63 30 -112 38 -152 27z"/>
<path d="M3503 9126 c-42 -19 -66 -58 -66 -106 0 -112 128 -158 203 -73 29 32
32 41 27 81 -9 83 -90 131 -164 98z"/>
<path d="M5085 8969 c-1278 -128 -2357 -873 -2905 -2004 -100 -207 -126 -273
-112 -287 15 -15 118 9 147 35 13 12 55 85 93 162 186 377 390 664 672 945
558 559 1265 898 2055 985 175 20 524 23 690 6 429 -44 809 -154 1200 -347
267 -131 495 -284 736 -492 63 -54 125 -104 136 -111 34 -18 107 -14 134 8
l23 18 -20 34 c-28 47 -223 222 -379 340 -502 377 -1065 605 -1715 695 -136
18 -618 27 -755 13z"/>
<path d="M2392 8454 c-93 -88 -122 -122 -120 -138 5 -36 40 -30 83 14 21 22
42 40 46 40 4 0 56 -49 115 -110 59 -60 115 -112 126 -116 22 -7 48 12 48 35
0 9 -49 69 -110 134 -60 64 -110 120 -110 124 0 4 21 26 46 49 48 45 56 77 19
82 -14 1 -59 -35 -143 -114z"/>
<path d="M2214 8272 c-28 -18 -174 -197 -174 -212 0 -20 279 -250 302 -250 18
0 38 20 38 39 0 9 -28 41 -62 72 l-62 56 52 60 c54 63 63 89 35 100 -12 5 -32
-11 -72 -56 -31 -34 -60 -61 -66 -61 -12 1 -75 57 -75 66 0 4 29 40 66 81 36
42 64 83 62 92 -4 18 -27 25 -44 13z"/>
<path d="M8366 8191 c-88 -58 -68 -182 33 -212 73 -22 144 32 144 109 0 49
-16 78 -56 102 -41 25 -84 25 -121 1z"/>
<path d="M8726 7895 c-133 -47 -190 -178 -132 -300 33 -71 117 -145 163 -145
38 0 123 58 122 83 0 34 -71 131 -97 135 -28 4 -30 -28 -4 -66 35 -50 35 -51
-2 -69 -34 -16 -36 -16 -69 10 -19 15 -45 47 -57 73 -30 62 -18 107 46 163 88
77 182 63 228 -34 15 -32 16 -43 5 -86 -11 -43 -11 -51 3 -65 34 -34 78 11 78
79 0 81 -97 204 -176 226 -49 14 -60 13 -108 -4z"/>
<path d="M1855 7835 c-14 -13 -25 -33 -25 -43 0 -10 51 -93 113 -183 114 -167
136 -187 161 -146 11 17 7 28 -34 93 -11 18 -8 28 36 92 46 68 51 71 79 65 17
-4 46 -7 65 -8 30 0 35 3 38 26 2 21 -3 29 -25 37 -33 13 -350 92 -370 92 -8
0 -25 -11 -38 -25z m153 -74 c41 -11 76 -22 79 -25 7 -6 -56 -106 -66 -106 -9
0 -101 131 -101 143 0 10 5 9 88 -12z"/>
<path d="M1713 7548 c-17 -4 -42 -21 -56 -38 -40 -47 -121 -214 -114 -233 4
-10 81 -54 172 -99 176 -87 200 -91 200 -37 0 20 -13 31 -73 62 l-73 38 19 32
c26 45 56 57 149 57 61 0 86 4 97 16 20 20 20 38 1 54 -16 13 -143 10 -178 -5
-16 -7 -18 -4 -12 29 16 83 -50 146 -132 124z m57 -98 c26 -26 25 -34 -6 -100
-38 -83 -39 -83 -95 -55 -27 14 -49 29 -49 34 0 12 50 102 68 124 20 23 57 22
82 -3z"/>
<path d="M8941 7437 c-85 -51 -159 -99 -164 -109 -14 -21 7 -48 37 -47 11 0
91 40 176 88 119 67 156 93 158 110 4 26 -14 51 -37 50 -9 0 -85 -42 -170 -92z"/>
<path d="M9020 7267 c-146 -78 -155 -85 -155 -113 0 -42 29 -42 113 0 l69 35
39 -77 c29 -57 44 -77 59 -77 31 0 29 28 -9 104 -20 39 -36 72 -36 74 0 10
104 51 107 42 2 -6 22 -48 46 -95 32 -64 47 -85 62 -85 34 0 27 34 -33 155
-48 98 -61 115 -82 117 -15 2 -84 -29 -180 -80z"/>
<path d="M1503 7131 c-83 -38 -138 -159 -114 -249 30 -110 177 -179 294 -138
52 19 76 42 103 101 38 80 31 147 -19 203 -43 47 -98 12 -57 -38 47 -58 49
-117 7 -166 -69 -80 -267 -5 -267 102 0 66 51 124 109 124 19 0 51 24 51 38
-1 36 -53 47 -107 23z"/>
<path d="M5015 7070 c-16 -5 -135 -32 -262 -61 -230 -52 -233 -53 -233 -78 0
-52 8 -54 124 -26 59 14 111 25 115 25 4 0 38 -140 76 -311 l70 -311 40 7 c21
3 41 8 43 10 3 2 -27 143 -65 312 -48 212 -67 310 -59 314 6 4 57 17 114 29
93 21 102 25 102 46 0 52 -10 59 -65 44z"/>
<path d="M9320 7018 c0 -13 8 -44 17 -71 11 -29 13 -50 7 -56 -5 -5 -70 -32
-144 -61 -148 -57 -160 -64 -160 -91 0 -44 32 -41 189 16 84 30 153 55 156 55
2 0 14 -27 26 -61 24 -66 42 -81 66 -56 14 14 13 23 -15 99 -82 226 -92 248
-118 248 -18 0 -24 -5 -24 -22z"/>
<path d="M4200 6886 c-156 -37 -226 -57 -228 -67 -1 -8 31 -162 73 -344 41
-181 75 -334 75 -338 0 -10 70 0 82 11 4 4 -9 76 -28 161 -22 94 -31 156 -25
160 5 3 80 22 165 41 l156 34 -6 35 c-4 20 -8 38 -10 40 -1 1 -75 -14 -164
-34 -89 -20 -164 -34 -167 -31 -11 10 -52 211 -45 217 4 4 87 25 185 47 99 22
181 43 184 45 6 7 -8 77 -16 76 -3 -1 -107 -25 -231 -53z"/>
<path d="M3525 6733 c-11 -3 -24 -8 -28 -13 -9 -8 -120 -751 -113 -757 2 -3
22 1 45 7 46 12 44 9 61 145 6 50 14 93 18 96 8 7 294 71 297 67 1 -2 30 -45
64 -96 l63 -94 46 7 c26 4 49 9 51 10 2 2 -95 145 -215 317 -230 328 -228 326
-289 311z m129 -226 c53 -82 96 -153 96 -157 0 -5 -44 -18 -97 -30 -54 -12
-108 -24 -120 -27 -13 -3 -23 -3 -23 -1 0 2 9 66 20 143 11 77 20 160 20 184
0 24 2 42 4 40 2 -2 47 -71 100 -152z"/>
<path d="M7105 6508 c-341 -78 -622 -143 -624 -144 -5 -4 66 -314 73 -321 3
-4 99 15 213 41 133 30 209 43 213 36 4 -6 57 -234 119 -507 62 -274 114 -499
116 -502 5 -4 372 76 396 87 14 6 1 72 -99 514 -64 279 -114 510 -111 512 2 3
96 26 209 51 113 25 206 48 209 50 3 4 -50 255 -65 308 -3 9 -11 17 -17 16 -7
0 -291 -64 -632 -141z"/>
<path d="M9391 6596 c-40 -22 -50 -54 -51 -153 0 -79 -3 -96 -20 -113 -48 -48
-110 0 -110 84 0 25 9 45 31 71 32 36 33 60 4 71 -21 9 -62 -20 -81 -58 -35
-68 6 -213 71 -248 32 -17 86 -18 117 -1 42 22 52 50 56 158 3 82 8 105 22
118 33 30 75 -6 86 -71 5 -34 2 -45 -21 -72 -35 -42 -31 -77 9 -77 69 0 94
120 47 219 -39 79 -99 106 -160 72z"/>
<path d="M2760 6559 c-96 -22 -175 -41 -177 -42 -2 -2 115 -528 152 -683 4
-20 8 -21 48 -11 l44 10 -35 153 c-19 85 -33 157 -30 160 11 10 123 33 165 34
51 0 98 -33 229 -162 l92 -91 53 13 52 13 -114 112 c-69 67 -131 119 -156 130
-42 19 -56 35 -30 35 8 0 33 14 56 31 84 60 104 174 46 261 -60 91 -127 97
-395 37z m307 -74 c51 -58 33 -149 -36 -184 -44 -22 -265 -76 -283 -68 -12 4
-58 178 -58 218 0 12 28 22 118 42 64 14 128 28 142 29 43 6 94 -10 117 -37z"/>
<path d="M1447 6503 c-14 -13 -6 -38 19 -64 l26 -27 -51 -26 -51 -26 -15 37
c-24 56 -43 73 -85 73 -59 0 -100 -58 -100 -141 0 -31 7 -47 29 -70 34 -33 47
-35 98 -14 20 8 37 14 37 13 1 -2 12 -25 26 -53 19 -38 33 -53 62 -63 33 -13
41 -12 75 4 71 35 109 131 83 210 -12 36 -12 37 24 70 31 29 35 37 26 54 -14
26 -23 25 -67 -5 l-36 -24 -34 29 c-33 30 -53 36 -66 23z m-141 -101 c13 -9
34 -46 34 -62 0 -18 -62 -40 -82 -29 -21 11 -25 68 -6 87 13 13 37 15 54 4z
m243 -78 c20 -72 -26 -127 -92 -110 -21 5 -47 42 -47 66 0 8 106 77 122 79 4
1 12 -15 17 -35z"/>
<path d="M2118 6421 c-107 -42 -175 -110 -203 -204 -53 -178 41 -419 190 -492
100 -49 261 -29 353 44 48 38 91 116 99 179 5 45 4 50 -18 55 -58 16 -66 11
-72 -45 -13 -109 -99 -182 -217 -182 -51 -1 -74 4 -110 24 -89 50 -145 174
-145 321 0 78 3 90 30 135 55 89 183 135 273 99 23 -10 58 -35 76 -57 l34 -39
36 17 c20 10 36 21 36 26 0 19 -88 102 -125 119 -54 25 -173 25 -237 0z"/>
<path d="M5648 6346 c-371 -141 -548 -522 -408 -874 42 -102 74 -146 398 -544
161 -197 332 -418 385 -498 54 -80 97 -142 97 -138 0 29 105 390 226 775 80
254 151 492 159 530 63 297 -77 582 -349 713 -106 51 -194 70 -319 70 -91 -1
-112 -4 -189 -34z m341 -326 c156 -79 252 -284 222 -471 -31 -188 -165 -311
-323 -296 -174 16 -310 162 -340 364 -13 88 0 166 41 254 77 163 248 227 400
149z"/>
<path d="M1135 5964 c-8 -9 -15 -25 -15 -37 -1 -12 -7 -85 -14 -162 -14 -146
-13 -160 9 -169 25 -9 45 23 45 72 0 26 4 52 8 58 5 9 46 9 163 1 85 -6 163
-8 172 -4 10 4 17 17 17 31 0 32 -29 40 -207 56 l-133 12 0 73 c0 78 -14 99
-45 69z"/>
<path d="M4665 5954 c-11 -3 -180 -42 -375 -86 -195 -44 -357 -82 -358 -83 -3
-3 297 -1345 302 -1352 2 -2 409 88 413 92 2 1 -23 113 -54 249 -42 187 -53
250 -44 256 7 4 38 13 69 19 333 72 454 136 524 279 28 57 34 79 37 157 8 207
-76 373 -227 446 -39 19 -66 23 -157 25 -60 2 -119 0 -130 -2z m25 -322 c52
-26 80 -74 80 -138 0 -48 -4 -59 -36 -93 -26 -29 -52 -45 -97 -59 -71 -23
-158 -44 -162 -40 -7 8 -66 290 -63 300 5 15 136 46 198 47 25 1 61 -7 80 -17z"/>
<path d="M3165 5635 c-127 -23 -199 -46 -292 -91 -111 -53 -186 -122 -229
-209 -26 -54 -29 -70 -29 -155 0 -84 3 -102 29 -157 50 -109 145 -176 293
-209 37 -8 156 -18 264 -23 262 -12 317 -35 326 -138 6 -60 -23 -107 -87 -143
-38 -21 -58 -25 -131 -25 -76 0 -90 3 -127 28 -34 22 -90 96 -105 140 -2 7
-375 -98 -386 -108 -11 -12 74 -162 120 -210 111 -117 204 -151 389 -142 129
7 226 25 348 67 215 73 346 212 375 399 27 174 -59 348 -207 421 -93 46 -178
60 -396 66 -248 6 -272 9 -304 39 -41 38 -33 105 18 146 50 41 177 55 234 25
28 -15 85 -79 94 -107 3 -8 371 91 384 103 2 3 -10 34 -28 69 -58 116 -161
197 -280 219 -68 13 -188 11 -273 -5z"/>
<path d="M1142 5525 c-42 -31 -52 -66 -52 -190 0 -169 -13 -159 198 -150 188
7 222 14 222 43 0 34 -21 42 -107 42 l-83 0 0 34 c0 45 27 76 109 124 38 23
71 49 75 57 7 19 -10 55 -25 55 -21 0 -96 -44 -130 -77 l-37 -35 -11 35 c-7
19 -20 42 -31 52 -27 25 -99 30 -128 10z m109 -97 c7 -12 14 -52 17 -89 l4
-66 -32 -7 c-18 -3 -45 -6 -61 -6 l-29 0 0 83 c0 93 7 107 57 107 23 0 36 -6
44 -22z"/>
<path d="M9399 5245 c-81 -44 -78 -169 5 -209 42 -20 59 -20 100 -1 86 41 87
175 1 211 -43 17 -73 17 -106 -1z"/>
<path d="M8872 5210 c-19 -4 -37 -12 -42 -16 -4 -5 -15 -76 -24 -159 -31 -277
-102 -579 -197 -833 -49 -132 -191 -437 -221 -476 -14 -18 -16 -16 -40 26 -81
137 -258 223 -408 199 -30 -5 -613 -143 -1295 -306 -682 -163 -1494 -357
-1805 -431 -1083 -259 -1155 -277 -1200 -299 -99 -50 -180 -151 -210 -263
l-11 -43 -31 19 c-66 42 -248 194 -359 300 -222 212 -417 461 -588 747 -49 83
-99 159 -111 170 -24 22 -81 25 -104 6 -41 -34 -9 -115 138 -350 244 -394 565
-735 956 -1017 67 -48 124 -93 125 -98 32 -107 45 -137 81 -185 52 -68 120
-116 203 -142 78 -24 153 -24 255 0 76 18 80 18 120 1 67 -28 312 -106 421
-134 300 -75 521 -101 875 -101 177 0 327 5 395 13 852 104 1600 473 2185
1079 105 109 132 131 170 142 64 18 148 77 192 136 49 64 76 138 85 227 5 64
13 82 64 170 206 346 359 761 434 1173 33 186 56 414 44 437 -10 19 -40 22
-97 8z m-686 -1495 c3 -20 5 -37 3 -39 -2 -2 -53 -14 -114 -28 -120 -26 -117
-23 -100 -94 l5 -21 106 24 c116 26 124 24 124 -29 0 -30 2 -29 -115 -54 -44
-9 -83 -20 -88 -23 -4 -4 -2 -31 5 -59 9 -40 15 -51 27 -48 60 17 222 48 226
44 3 -3 8 -21 11 -40 l6 -34 -163 -37 c-89 -21 -166 -34 -170 -30 -10 11 -101
413 -96 427 4 11 250 73 299 75 23 1 28 -4 34 -34z m-479 -86 c32 -12 93 -67
93 -84 0 -7 -19 -19 -42 -28 -41 -16 -41 -16 -64 8 -31 33 -92 34 -129 2 -51
-44 -39 -192 20 -247 55 -52 145 -20 159 56 7 36 16 39 74 28 29 -6 31 -9 25
-38 -29 -152 -226 -211 -337 -100 -63 63 -93 196 -62 277 39 102 166 163 263
126z m-379 -298 c73 -106 130 -197 125 -201 -4 -4 -27 -11 -50 -15 -40 -6 -42
-5 -69 34 -30 46 -35 47 -132 25 l-70 -16 -7 -53 c-4 -38 -11 -55 -23 -59 -47
-13 -82 -17 -82 -8 0 9 55 379 65 439 5 26 12 35 38 42 18 5 41 9 51 8 13 -1
64 -67 154 -196z m-633 57 c3 -13 20 -90 39 -171 19 -81 36 -150 39 -154 3 -3
47 4 97 16 50 12 98 21 105 21 15 0 37 -60 26 -72 -9 -9 -299 -73 -305 -67 -7
7 -96 397 -96 420 0 17 18 25 67 28 16 1 24 -6 28 -21z m-179 -69 c53 -50 57
-149 8 -200 -26 -27 -79 -50 -152 -64 -24 -5 -32 -11 -28 -23 3 -10 10 -39 16
-67 6 -27 13 -57 15 -66 4 -12 -6 -18 -40 -26 -25 -6 -48 -7 -50 -2 -5 7 -92
382 -98 418 -2 16 52 33 173 54 83 15 121 9 156 -24z m-383 -36 c3 -5 8 -22
11 -40 l7 -31 -58 -12 c-32 -7 -61 -14 -64 -16 -3 -2 11 -81 32 -175 22 -95
39 -176 39 -180 0 -14 -82 -32 -90 -19 -4 6 -24 87 -45 180 -21 94 -41 170
-44 170 -3 0 -32 -6 -64 -14 -64 -15 -66 -14 -70 39 l-2 29 155 37 c168 40
187 43 193 32z m-400 -90 c3 -5 8 -22 11 -39 l7 -31 -98 -22 c-147 -33 -136
-28 -128 -69 4 -21 10 -40 13 -44 4 -4 54 3 110 16 l103 23 10 -25 c18 -48 10
-55 -94 -78 -54 -12 -101 -24 -104 -27 -7 -7 5 -78 16 -96 7 -11 30 -9 126 14
64 15 118 25 119 23 2 -1 6 -20 10 -40 5 -30 3 -37 -11 -42 -58 -16 -314 -69
-318 -65 -6 7 -95 397 -95 420 0 11 9 21 23 24 122 29 274 64 284 64 6 1 14
-2 16 -6z m-383 -88 c0 -2 -27 -48 -61 -102 l-60 -98 116 -110 c63 -60 115
-113 115 -116 0 -3 -26 -12 -57 -19 l-58 -13 -82 89 c-46 48 -84 86 -86 83 -2
-2 -14 -21 -26 -42 -22 -36 -22 -39 -8 -102 8 -36 12 -67 8 -70 -13 -7 -91
-18 -91 -12 0 3 -20 94 -45 203 -25 108 -45 205 -45 215 0 17 7 21 62 33 25 6
26 4 43 -72 9 -42 20 -83 24 -90 4 -7 31 30 69 97 57 99 66 110 100 119 41 11
82 15 82 7z m-481 -150 c64 -54 63 -148 -2 -199 -17 -14 -26 -26 -18 -26 14 0
161 -138 161 -151 0 -4 -23 -12 -52 -18 l-52 -12 -65 65 c-77 74 -101 89 -136
80 -29 -7 -29 -10 -10 -89 23 -96 21 -102 -26 -110 -22 -4 -43 -5 -46 -2 -6 6
-103 430 -99 434 10 10 220 51 263 52 41 1 57 -4 82 -24z m2866 -61 c-502
-473 -1173 -791 -1871 -888 -360 -50 -783 -37 -1134 35 -128 26 -363 88 -373
99 -5 4 33 18 85 29 51 12 822 197 1713 410 891 214 1629 389 1640 389 14 1
-3 -20 -60 -74z m-3295 -211 c74 -108 134 -199 133 -202 -1 -3 -21 -11 -45
-17 -47 -13 -46 -13 -93 50 l-20 27 -80 -17 c-44 -10 -82 -19 -84 -20 -1 -1
-6 -26 -10 -56 l-6 -52 -43 -9 c-24 -5 -46 -6 -49 -3 -4 3 9 111 28 238 l34
233 45 12 c25 6 47 12 50 12 3 0 66 -88 140 -196z m-415 10 c15 -65 37 -163
50 -218 13 -55 21 -103 17 -107 -4 -3 -24 -9 -44 -13 -42 -8 -36 -20 -80 175
l-23 105 -7 -50 c-3 -27 -7 -96 -7 -153 -1 -112 -2 -113 -63 -116 -33 -1 -34
1 -106 139 -40 77 -70 131 -68 120 3 -11 17 -72 31 -135 14 -63 28 -123 31
-132 4 -13 -5 -20 -37 -28 -22 -6 -43 -9 -46 -6 -11 11 -102 431 -95 437 7 6
102 29 122 29 5 0 40 -59 78 -131 l69 -131 8 151 7 150 61 15 c34 8 65 15 69
15 3 1 18 -52 33 -116z"/>
<path d="M7157 3348 c-12 -100 -12 -101 31 -93 64 12 65 16 26 75 -51 77 -50
77 -57 18z"/>
<path d="M6350 3258 c-25 -6 -47 -11 -48 -13 -7 -6 19 -115 27 -115 4 0 31 7
59 15 66 20 90 59 60 97 -18 23 -46 27 -98 16z"/>
<path d="M4735 2893 c-11 -2 -37 -9 -59 -14 l-38 -10 6 -42 c4 -23 11 -46 16
-51 10 -10 106 11 138 30 27 18 28 48 2 74 -20 20 -28 22 -65 13z"/>
<path d="M4276 2713 c-17 -93 -18 -126 -3 -120 9 3 32 9 51 13 20 3 36 10 36
15 0 9 -70 119 -76 119 -1 0 -5 -12 -8 -27z"/>
<path d="M1462 5119 c-45 -17 -307 -162 -329 -182 -28 -25 -29 -61 -4 -86 20
-20 382 -114 405 -105 18 7 27 30 20 49 -3 8 -25 20 -48 25 -22 6 -46 13 -52
15 -12 4 -19 32 -29 126 l-7 55 41 19 c51 22 65 38 56 64 -7 25 -24 31 -53 20z
m-88 -201 c3 -34 4 -63 2 -65 -4 -4 -168 36 -174 42 -5 4 141 84 154 85 6 0
14 -27 18 -62z"/>
<path d="M9240 4791 c-22 -42 7 -60 123 -76 36 -6 47 -11 47 -25 0 -19 -30
-173 -35 -178 -2 -2 -31 4 -65 13 -34 9 -76 15 -94 13 -27 -3 -31 -7 -31 -33
l0 -30 188 -49 c200 -51 217 -52 217 0 0 28 -16 38 -92 54 -33 8 -58 19 -58
26 0 25 32 169 40 177 4 4 37 3 74 -4 52 -9 70 -8 81 1 17 14 20 56 4 65 -10
7 -349 65 -376 65 -7 0 -17 -9 -23 -19z"/>
<path d="M1376 4549 c-50 -45 -58 -99 -24 -149 67 -98 213 -54 213 66 0 60
-43 104 -108 111 -40 5 -48 2 -81 -28z"/>
<path d="M6400 4468 c-53 -15 -56 -25 -10 -31 23 -3 45 -8 48 -12 4 -4 -12
-24 -36 -45 -97 -87 -450 -189 -562 -162 l-35 9 38 36 c29 28 34 37 20 37 -32
-1 -103 -38 -103 -55 0 -8 13 -42 29 -73 23 -46 38 -62 68 -75 126 -55 287
-46 431 25 76 37 197 148 207 191 4 14 2 58 -5 97 -13 77 -16 79 -90 58z"/>
<path d="M9152 4388 c-20 -20 -15 -31 30 -69 l42 -37 -25 -83 -24 -84 -40 -3
c-71 -4 -85 -10 -85 -37 0 -13 8 -28 18 -34 20 -10 364 7 400 20 25 10 45 53
37 80 -8 23 -302 259 -324 259 -9 0 -22 -5 -29 -12z m203 -203 c35 -27 64 -53
65 -57 0 -5 -33 -8 -74 -8 -41 0 -81 -3 -90 -6 -11 -4 -16 0 -16 13 0 30 31
114 41 111 5 -2 38 -25 74 -53z"/>
<path d="M8999 3954 c-22 -27 1 -45 125 -97 65 -27 114 -53 109 -57 -4 -4 -78
-20 -163 -34 -161 -28 -193 -42 -188 -80 2 -16 45 -42 175 -108 97 -50 178
-85 187 -82 18 7 30 39 21 55 -4 6 -57 35 -119 65 -61 30 -114 58 -119 63 -4
4 64 20 150 35 87 16 168 33 180 37 32 12 41 56 17 78 -21 20 -319 141 -345
141 -9 0 -22 -7 -30 -16z"/>
<path d="M8818 3553 c-32 -38 -97 -160 -104 -196 -10 -55 18 -118 73 -166 86
-76 191 -89 256 -31 39 34 127 179 127 209 0 13 -14 29 -37 44 -43 27 -287
157 -295 157 -3 0 -12 -8 -20 -17z m149 -142 c62 -35 116 -67 119 -72 10 -16
-64 -119 -94 -130 -74 -28 -212 63 -212 141 0 28 57 133 68 127 4 -2 58 -32
119 -66z"/>
<path d="M1863 3340 c-73 -44 -136 -80 -140 -80 -5 0 -22 24 -38 53 -19 32
-39 53 -52 55 -40 6 -36 -28 13 -112 92 -159 133 -216 154 -216 34 0 34 26 1
80 -17 28 -31 54 -31 59 0 5 61 46 136 92 75 45 139 89 142 97 7 20 -11 47
-34 49 -10 1 -79 -33 -151 -77z"/>
<path d="M8576 3184 c-31 -30 -23 -39 148 -163 143 -103 177 -117 196 -81 19
35 15 38 -198 183 -62 42 -117 77 -122 77 -5 0 -16 -7 -24 -16z"/>
<path d="M1987 3083 c-14 -14 -5 -37 38 -97 25 -35 45 -67 45 -72 0 -9 -73
-64 -83 -64 -3 0 -31 36 -62 80 -31 44 -60 82 -65 85 -14 9 -40 -6 -40 -24 0
-27 152 -226 175 -229 20 -2 290 201 307 232 5 9 1 22 -10 36 -16 20 -21 21
-43 10 -13 -7 -42 -27 -64 -45 -22 -18 -45 -35 -52 -38 -6 -4 -32 21 -63 63
-49 65 -67 80 -83 63z"/>
<path d="M8418 2967 c-58 -45 -88 -99 -88 -163 0 -76 47 -129 79 -90 10 11 9
25 -3 61 -14 39 -14 50 -2 79 29 69 100 95 169 60 103 -52 139 -154 78 -221
-33 -36 -67 -48 -113 -39 -35 7 -58 -7 -58 -35 0 -23 29 -39 74 -39 47 0 77
13 120 51 155 135 58 369 -153 369 -52 0 -65 -4 -103 -33z"/>
<path d="M2327 2913 c-8 -10 -52 -93 -97 -184 -75 -151 -81 -168 -70 -190 29
-55 52 -53 261 29 161 63 174 70 177 95 4 37 -19 44 -77 23 -25 -9 -49 -16
-52 -16 -3 0 -31 29 -63 65 l-57 64 25 49 c17 35 22 52 15 65 -13 22 -42 22
-62 0z m75 -274 c-18 -15 -162 -67 -162 -58 0 12 58 129 73 148 9 11 20 4 54
-35 23 -27 39 -52 35 -55z"/>
<path d="M8177 2713 c-18 -17 -2 -50 50 -105 l58 -60 -30 -24 c-37 -29 -69
-30 -160 -4 -83 24 -115 20 -115 -15 0 -33 47 -56 127 -63 41 -3 62 -9 59 -16
-26 -62 -29 -87 -13 -122 21 -42 74 -68 120 -58 36 8 217 178 217 204 0 27
-257 270 -284 270 -13 0 -26 -3 -29 -7z m188 -243 l39 -40 -49 -50 c-54 -55
-82 -68 -113 -51 -27 14 -36 45 -21 73 12 24 89 108 99 108 3 0 24 -18 45 -40z"/>
<path d="M2633 2608 c-20 -25 -33 -82 -33 -138 l0 -58 -44 16 c-41 15 -47 15
-81 -1 -24 -12 -41 -29 -51 -54 -25 -60 -1 -105 104 -197 48 -42 96 -76 108
-76 15 0 54 40 138 141 64 78 116 150 116 160 0 21 -32 42 -52 34 -7 -3 -33
-30 -58 -60 -25 -30 -50 -55 -56 -55 -20 0 -55 48 -56 77 -1 16 5 67 13 112
12 79 12 84 -6 97 -23 17 -30 17 -42 2z m-27 -267 c21 -15 49 -39 61 -52 l21
-24 -40 -45 -40 -44 -59 61 c-32 33 -59 68 -59 77 0 22 36 56 58 56 11 0 37
-13 58 -29z"/>
<path d="M7895 2447 c-17 -13 -17 -16 -1 -62 9 -27 16 -52 16 -56 0 -9 -127
-109 -139 -109 -4 0 -29 12 -55 26 -38 21 -49 24 -61 14 -20 -17 -19 -43 3
-63 27 -24 304 -187 329 -193 37 -10 73 20 73 59 -1 43 -106 378 -122 388 -18
12 -21 11 -43 -4z m66 -272 c15 -47 22 -85 17 -85 -13 0 -148 83 -148 91 0 7
90 79 99 79 4 0 18 -38 32 -85z"/>
<path d="M2931 2272 c-48 -24 -60 -47 -39 -69 17 -16 20 -16 53 0 131 62 225
-71 138 -195 -58 -85 -132 -102 -199 -44 -36 31 -39 38 -39 86 0 39 -4 56 -17
64 -29 18 -53 -4 -56 -52 -10 -127 158 -240 281 -188 77 32 136 125 137 214 0
61 -15 94 -62 139 -63 61 -135 77 -197 45z"/>
<path d="M7537 2179 c-27 -15 -21 -44 25 -115 33 -53 38 -68 27 -75 -8 -5 -40
-25 -71 -45 -37 -23 -58 -42 -58 -54 0 -34 20 -32 93 11 40 23 75 43 79 45 9
6 60 -85 54 -95 -3 -5 -37 -27 -75 -50 -83 -49 -102 -67 -95 -86 10 -26 37
-17 149 53 82 50 111 73 113 91 3 16 -26 67 -95 168 -54 80 -105 149 -113 153
-9 5 -23 4 -33 -1z"/>
<path d="M3305 2014 c-46 -24 -83 -63 -110 -118 -43 -85 -29 -167 38 -222 49
-40 184 -107 202 -100 18 7 177 323 173 343 -2 9 -43 38 -93 64 -99 54 -154
62 -210 33z m171 -80 c24 -14 44 -28 44 -30 0 -7 -35 -75 -87 -172 l-45 -83
-47 27 c-92 52 -113 104 -71 182 55 103 119 127 206 76z"/>
<path d="M7143 1953 c-25 -9 -12 -53 52 -184 36 -72 65 -137 65 -143 0 -7 -25
-24 -56 -39 -45 -22 -55 -31 -52 -50 2 -12 11 -23 20 -25 9 -2 85 31 167 73
118 59 151 81 151 96 0 32 -29 34 -86 6 -30 -15 -57 -27 -59 -27 -3 0 -30 50
-61 112 -90 180 -103 197 -141 181z"/>
<path d="M3715 1816 c-70 -31 -135 -134 -135 -214 0 -45 25 -106 56 -134 37
-33 128 -68 177 -68 58 0 117 28 146 69 48 68 65 170 37 234 -41 97 -186 155
-281 113z m139 -60 c50 -21 76 -60 76 -115 -1 -114 -84 -197 -169 -170 -49 15
-89 56 -97 95 -12 65 40 164 100 190 40 17 49 17 90 0z"/>
<path d="M4185 1660 c-88 -27 -160 -163 -141 -265 20 -106 190 -187 303 -144
119 45 163 247 74 342 -54 59 -162 90 -236 67z m160 -84 c68 -45 50 -209 -29
-257 -38 -23 -64 -24 -115 -3 -68 27 -91 85 -67 168 32 108 124 149 211 92z"/>
<path d="M4636 1548 c-8 -13 -49 -94 -93 -181 -63 -127 -76 -160 -67 -175 6
-9 22 -17 35 -17 26 0 26 0 101 160 28 61 53 103 54 95 2 -8 10 -73 18 -143 8
-71 20 -135 27 -143 12 -15 56 -19 76 -6 10 6 79 152 115 242 10 24 10 24 18
5 4 -11 13 -72 20 -135 14 -135 21 -152 58 -148 21 2 28 9 30 30 4 34 -47 356
-59 381 -10 17 -45 23 -66 9 -6 -4 -39 -69 -74 -145 -34 -76 -65 -135 -69
-130 -4 4 -14 72 -23 151 -9 79 -21 150 -28 158 -18 21 -57 17 -73 -8z"/>
<path d="M5304 1376 c-29 -29 -34 -41 -34 -81 0 -40 5 -52 35 -82 33 -33 39
-35 86 -31 69 7 100 38 107 107 4 47 2 53 -31 86 -30 30 -42 35 -82 35 -40 0
-52 -5 -81 -34z"/>
</g>
</svg>
