<?xml version="1.0" standalone="no"?>
<!DOCTYPE svg PUBLIC "-//W3C//DTD SVG 20010904//EN"
 "http://www.w3.org/TR/2001/REC-SVG-20010904/DTD/svg10.dtd">
<svg version="1.0" xmlns="http://www.w3.org/2000/svg"
 width="25.000000pt" height="25.000000pt" viewBox="0 0 1080.000000 1080.000000"
 preserveAspectRatio="xMidYMid meet">

<g transform="translate(0.000000,1080.000000) scale(0.100000,-0.100000)"
fill="#000000" stroke="none">
<path d="M5225 10753 c-1212 -48 -2333 -479 -3265 -1253 -161 -134 -526 -499
-660 -660 -912 -1097 -1353 -2479 -1239 -3885 153 -1886 1285 -3550 2984
-4385 748 -367 1537 -550 2372 -550 1263 0 2474 442 3453 1261 159 133 422
389 561 547 l108 123 -30 43 c-34 51 -35 56 -11 56 23 0 52 30 52 54 0 26 -38
94 -98 176 -102 138 -263 340 -272 340 -5 0 -14 -9 -20 -20 -20 -37 -33 -23
-27 29 6 47 4 52 -47 119 -45 59 -56 82 -65 135 -20 115 -13 165 28 187 16 8
23 3 45 -30 32 -49 32 -50 1 -50 -27 0 -45 -25 -45 -63 0 -23 109 -178 130
-185 5 -2 17 13 27 32 20 43 28 45 47 9 13 -25 12 -30 -11 -60 -14 -18 -22
-37 -18 -44 4 -6 62 -84 129 -173 191 -253 231 -332 224 -445 -1 -33 0 -57 4
-55 4 3 52 64 107 137 452 605 753 1234 931 1947 156 624 198 1274 124 1920
-177 1551 -1040 2963 -2344 3835 -645 431 -1340 708 -2095 835 -363 61 -741
87 -1080 73z m366 -33 c39 -21 18 -110 -26 -110 -44 0 -60 65 -25 100 23 23
25 23 51 10z m-285 -186 l-8 -117 52 6 c51 6 51 6 48 -21 -3 -25 -8 -27 -53
-32 l-50 -5 -6 -140 c-6 -138 -3 -191 11 -200 4 -2 26 12 49 31 35 31 41 33
41 16 0 -22 -112 -132 -134 -132 -35 0 -39 27 -35 227 l4 198 -37 -3 c-49 -5
-48 11 2 43 l40 25 0 89 0 89 33 20 c17 11 36 21 41 21 5 1 6 -49 2 -115z
m-879 -276 l130 -333 34 -5 c21 -3 35 -11 37 -21 2 -13 -8 -19 -48 -24 -28 -4
-74 -13 -102 -21 -41 -10 -54 -11 -60 -1 -13 20 -9 25 23 32 17 4 32 12 35 19
4 10 -70 223 -81 235 -3 3 -207 -39 -213 -44 -6 -5 -42 -207 -42 -235 0 -28 2
-30 40 -30 36 0 45 -6 38 -27 -2 -6 -168 -53 -185 -53 -2 0 -3 9 -3 20 0 11 7
20 15 20 9 0 19 10 24 23 4 12 45 186 91 387 46 201 87 371 93 378 30 38 42
16 174 -320z m1147 216 c21 -8 21 -71 1 -219 -16 -124 -19 -225 -6 -225 4 0
20 9 34 20 26 21 47 26 47 12 0 -11 -81 -88 -107 -101 -17 -9 -25 -8 -37 5
-21 20 -20 78 1 266 18 167 14 186 -33 149 -31 -25 -44 -27 -44 -7 0 11 112
106 125 106 2 0 10 -3 19 -6z m406 -19 c33 -11 46 -12 57 -4 7 7 16 9 20 5 3
-3 -3 -75 -15 -158 -34 -241 -43 -316 -55 -469 l-12 -143 -30 -8 c-44 -12 -56
-4 -45 29 10 30 54 423 48 428 -2 2 -26 -26 -53 -63 -56 -74 -122 -126 -147
-117 -59 23 -47 323 15 417 29 43 112 98 147 98 15 0 47 -7 70 -15z m-961 -27
c5 -13 4 -110 0 -217 -6 -130 -6 -198 1 -205 7 -7 20 0 40 19 22 21 33 26 41
18 9 -9 -3 -26 -44 -67 -54 -55 -88 -69 -103 -44 -5 7 -7 108 -5 225 2 195 1
213 -15 213 -24 0 -78 -61 -108 -122 -33 -68 -46 -139 -46 -250 0 -86 -1 -89
-26 -98 -45 -17 -46 -15 -44 83 2 50 2 147 1 215 -1 139 -10 156 -61 107 -19
-18 -30 -23 -35 -15 -11 18 105 131 130 128 18 -3 20 -13 25 -108 5 -103 5
-104 19 -71 28 67 92 150 138 180 55 37 80 39 92 9z m1267 -3 c4 -9 -6 -77
-20 -153 -34 -173 -42 -257 -27 -266 6 -4 37 17 71 50 72 68 123 164 143 269
13 66 15 70 46 78 18 4 35 6 38 4 2 -3 -9 -61 -26 -128 -30 -125 -51 -235 -51
-276 0 -30 26 -30 57 -1 25 23 44 17 27 -10 -18 -28 -106 -83 -128 -80 -19 3
-21 10 -21 63 0 33 4 80 8 105 l8 45 -22 -30 c-45 -61 -145 -154 -172 -160
-65 -17 -70 24 -30 262 14 90 23 166 20 170 -4 3 -24 -1 -44 -11 -24 -11 -39
-14 -46 -7 -6 6 12 24 53 50 66 43 107 52 116 26z m617 -87 c34 -18 46 -40 47
-85 0 -80 -72 -132 -206 -149 l-52 -6 -6 -52 c-8 -60 3 -97 36 -120 32 -22 67
-20 123 9 27 13 51 22 54 19 11 -11 -19 -41 -70 -67 -98 -52 -186 -24 -210 67
-21 79 14 244 68 315 47 61 162 98 216 69z m-1228 -798 c1226 -85 2329 -678
3057 -1645 446 -592 715 -1262 815 -2030 26 -201 26 -759 0 -960 -105 -806
-401 -1510 -891 -2125 -157 -197 -439 -479 -636 -636 -645 -514 -1405 -821
-2230 -900 -228 -22 -691 -14 -906 15 -910 124 -1721 515 -2368 1141 -1104
1068 -1529 2666 -1101 4145 248 857 772 1620 1481 2157 665 503 1426 782 2294
841 108 8 356 6 485 -3z m-4546 -1404 c62 -39 64 -39 78 -20 7 10 16 29 20 42
6 25 20 28 46 8 16 -13 16 -16 -7 -57 l-25 -43 57 -34 c134 -81 213 -122 233
-122 19 0 21 4 14 33 -11 48 -11 62 0 67 15 7 59 -134 51 -165 -12 -46 -53
-34 -221 65 -84 50 -156 90 -159 90 -3 0 -12 -13 -21 -30 -22 -43 -33 -37 -37
17 l-3 47 -77 44 c-76 42 -78 44 -78 81 0 48 7 55 39 34 14 -9 55 -35 90 -57z
m-202 -22 c34 -26 42 -44 20 -44 -25 0 -59 -46 -55 -76 2 -24 17 -38 87 -81
83 -52 111 -63 111 -43 0 6 7 27 15 47 l15 36 25 -23 24 -23 -20 -39 c-11 -22
-19 -41 -17 -43 2 -2 91 -53 198 -115 222 -128 286 -173 325 -232 31 -47 44
-120 26 -142 -10 -12 -18 -11 -51 8 -22 11 -40 24 -40 27 0 4 11 14 25 23 65
42 18 83 -282 243 l-228 122 -15 -35 c-20 -44 -34 -38 -40 17 -5 42 -7 45 -79
88 -66 39 -76 50 -98 100 -36 81 -41 149 -13 184 12 15 24 27 27 27 3 0 21
-11 40 -26z m8941 -25 c17 -27 39 -6 -276 -269 -257 -215 -257 -215 -257 -255
0 -71 -25 -54 -76 51 -35 72 -43 97 -33 105 9 7 18 1 34 -21 19 -26 24 -29 43
-19 34 18 177 140 177 151 0 5 -24 50 -52 100 l-53 90 -65 -6 c-81 -8 -178
-30 -192 -44 -6 -6 -4 -20 6 -40 13 -25 13 -32 2 -41 -11 -9 -25 5 -71 70 -44
62 -54 83 -44 90 8 5 20 2 29 -6 17 -15 -17 -18 600 44 102 10 192 19 200 20
8 0 21 -9 28 -20z m-8813 -489 c111 -68 252 -140 273 -140 19 0 20 3 11 30
-13 35 -9 52 9 42 18 -12 54 -120 47 -143 -9 -27 -30 -24 -113 16 l-73 35 46
-64 c51 -72 75 -123 75 -162 0 -26 -1 -26 -55 -22 -96 8 -303 122 -345 191
-47 75 -48 138 -4 203 14 20 23 42 20 49 -2 7 -2 16 1 19 6 6 24 -3 108 -54z
m8694 10 c54 -27 101 -69 101 -89 0 -21 -26 -34 -103 -51 -31 -7 -57 -16 -57
-20 0 -4 24 -10 53 -14 76 -9 126 -25 148 -47 31 -31 20 -50 -36 -65 -67 -18
-68 -18 -61 11 12 48 -56 85 -158 85 -26 0 -95 -12 -153 -27 l-105 -27 -19 24
c-10 14 -19 28 -19 32 0 3 24 12 53 18 163 39 367 105 367 120 0 5 -16 18 -35
30 -61 38 -42 54 24 20z m-8820 -347 c2 -1 -4 -12 -14 -23 -46 -51 45 -151
208 -229 95 -46 105 -53 109 -81 3 -17 1 -33 -2 -35 -4 -3 -63 22 -131 54
-153 72 -267 116 -276 108 -3 -4 -1 -24 5 -44 7 -23 8 -41 2 -47 -11 -11 -60
94 -67 147 -5 34 -4 37 18 37 14 0 58 -16 99 -36 l75 -35 -51 53 c-73 76 -94
107 -94 138 0 15 3 29 6 32 4 5 98 -27 113 -39z m8955 -38 l31 -36 84 17 84
18 29 -34 c17 -20 24 -38 19 -43 -5 -5 -54 -14 -108 -21 -76 -9 -98 -15 -97
-26 1 -8 5 -34 9 -58 7 -43 7 -44 -21 -40 -22 2 -30 9 -32 28 -8 73 -8 73 -65
66 -103 -14 -252 -47 -266 -61 -14 -14 -4 -26 54 -69 18 -13 19 -15 3 -21 -12
-5 -38 8 -80 37 -71 49 -86 84 -48 111 12 9 101 30 196 48 l175 33 -7 43 c-3
24 -3 43 1 43 4 0 22 -16 39 -35z m-9292 -242 c83 -34 92 -59 19 -49 -48 6
-50 6 -83 -34 -67 -78 -81 -202 -31 -274 39 -55 123 -112 203 -137 82 -26 192
-35 246 -20 131 35 190 158 145 301 -22 68 -20 81 7 64 67 -43 85 -220 33
-322 -75 -145 -286 -180 -497 -81 -67 32 -149 110 -183 176 -27 54 -40 141
-30 204 12 74 73 199 97 199 3 0 36 -12 74 -27z m9574 -1806 c346 -219 333
-213 307 -139 -14 43 -11 64 7 46 15 -15 60 -142 60 -169 0 -33 -33 -33 -80
-2 -19 13 -48 32 -65 43 l-30 19 27 -35 c36 -49 73 -126 93 -193 21 -73 11
-92 -48 -84 -57 8 -143 63 -228 147 -60 60 -81 87 -98 135 -22 59 -25 137 -7
177 6 13 -7 25 -63 57 -99 58 -100 58 -107 22 -7 -31 -21 -41 -29 -18 -8 26
-12 157 -5 157 5 0 124 -74 266 -163z m-36 -426 c47 -32 73 -104 79 -215 l6
-99 56 -31 c55 -30 57 -30 82 -13 23 15 27 25 27 66 0 26 -7 70 -15 96 -16 54
-11 71 11 40 22 -30 46 -122 46 -175 0 -134 -87 -155 -221 -54 -121 90 -174
178 -188 304 -5 54 -4 60 21 85 29 29 50 28 96 -4z m-120 -310 c19 -14 37 -26
39 -28 2 -2 -4 -12 -13 -22 -13 -14 -16 -28 -11 -50 11 -52 102 -168 190 -243
85 -72 94 -87 76 -132 -6 -17 -18 -10 -90 57 -90 83 -237 197 -253 197 -6 0
-8 -11 -4 -25 3 -14 9 -37 12 -51 5 -20 3 -25 -7 -22 -26 9 -62 189 -41 202 9
5 42 -16 113 -74 24 -19 39 -28 34 -20 -5 8 -27 41 -48 73 -50 76 -70 124 -62
154 6 26 8 25 65 -16z m-57 -472 c135 -123 195 -171 208 -164 4 3 3 20 -2 38
-5 17 -9 41 -9 52 1 41 29 -15 46 -92 28 -126 -1 -136 -106 -37 l-70 66 41
-86 c68 -147 82 -266 29 -266 -12 0 -75 52 -161 135 -77 74 -145 135 -150 135
-5 0 -9 -20 -9 -45 0 -62 -15 -56 -29 12 -16 84 -15 143 5 143 8 0 80 -63 160
-140 80 -77 151 -140 159 -140 20 0 19 17 -10 108 -32 101 -84 180 -172 263
-63 59 -70 69 -65 97 2 18 6 32 9 32 2 0 59 -50 126 -111z m-362 -315 l77 -76
17 47 18 46 21 -20 20 -21 -22 -44 -21 -45 121 -115 c67 -64 126 -116 131
-116 6 0 8 25 4 66 -5 48 -3 64 6 61 15 -5 38 -121 35 -177 -3 -39 -6 -45 -27
-48 -20 -3 -48 20 -157 135 -73 76 -134 136 -137 133 -2 -3 -10 -15 -16 -27
-19 -37 -31 -26 -31 26 0 49 -2 51 -65 107 -61 54 -65 60 -65 101 0 24 3 43 7
43 4 0 42 -34 84 -76z m24 -294 c60 -61 54 -82 -11 -35 -20 15 -24 14 -49 -7
-18 -16 -28 -36 -32 -65 -7 -52 21 -104 104 -193 129 -140 210 -123 201 42 -5
89 16 93 31 5 14 -79 14 -92 0 -141 -33 -118 -125 -112 -245 16 -81 88 -114
151 -121 237 -3 38 -3 85 1 106 7 35 44 85 63 85 5 0 31 -22 58 -50z m-77
-463 c65 -80 117 -135 123 -131 7 4 9 23 6 46 -4 27 -2 38 6 35 16 -5 25 -42
26 -104 2 -104 -16 -107 -97 -17 l-60 67 18 -56 c28 -84 44 -202 30 -227 -6
-11 -18 -20 -26 -20 -24 0 -128 105 -184 186 -73 106 -90 147 -90 227 0 71 13
108 49 141 12 11 21 29 21 40 1 26 16 10 178 -187z m-7657 -114 c8 -15 48 -73
91 -130 42 -56 82 -118 88 -138 24 -73 -13 -160 -101 -239 -172 -155 -406
-191 -561 -88 -26 17 -65 64 -114 139 -41 62 -74 117 -74 123 0 7 12 9 34 5
27 -6 54 2 133 36 145 64 470 225 477 238 4 6 2 20 -4 32 -12 21 -7 49 8 49 5
0 15 -12 23 -27z m7229 -357 c95 -140 155 -216 171 -216 5 0 9 21 9 46 0 32 4
44 13 42 16 -6 22 -135 7 -172 -16 -42 -39 -29 -100 56 -30 43 -55 76 -56 75
-2 -1 4 -29 12 -62 22 -90 23 -231 1 -252 -28 -28 -59 -2 -133 112 -107 165
-145 216 -157 212 -7 -2 -13 -20 -15 -41 -2 -23 -8 -36 -15 -33 -8 3 -11 26
-8 73 4 81 15 114 36 114 8 0 65 -75 130 -175 63 -96 122 -175 130 -175 12 0
15 14 15 60 0 119 -41 237 -123 353 -38 55 -42 65 -33 90 5 15 13 27 17 27 5
0 49 -60 99 -134z m-378 -238 c9 -7 62 -87 118 -178 56 -91 106 -169 111 -174
13 -14 20 -3 26 44 8 61 27 44 24 -23 -3 -72 -13 -108 -33 -121 -24 -15 -42 4
-105 113 -143 247 -165 273 -179 215 -11 -44 2 -177 24 -238 12 -32 42 -95 67
-140 44 -77 46 -82 32 -106 -23 -37 -31 -35 -56 17 -35 73 -158 278 -185 310
-26 30 -28 29 -40 -29 -4 -16 -11 -28 -17 -28 -8 0 -9 21 -4 67 16 155 40 151
142 -24 l22 -38 -7 35 c-4 19 -7 82 -7 140 0 82 4 112 18 138 19 35 26 38 49
20z m-6677 -69 c74 -13 112 -32 120 -60 11 -33 -13 -74 -57 -99 -59 -33 -130
-30 -217 10 l-70 32 -35 -22 c-45 -27 -76 -66 -76 -96 0 -29 42 -62 89 -69 71
-12 82 -16 75 -27 -9 -15 -134 -4 -172 16 -38 20 -72 62 -72 90 0 69 127 168
280 217 67 22 63 22 135 8z m289 -229 c52 -12 90 -41 93 -71 2 -18 -9 -33 -47
-61 -49 -37 -70 -46 -70 -30 0 5 11 19 25 32 14 13 25 31 25 41 0 25 -57 69
-89 69 -73 0 -280 -145 -295 -206 -13 -50 55 -94 147 -94 20 0 37 -4 37 -10 0
-16 -48 -23 -112 -16 -196 20 -207 145 -25 270 110 76 209 100 311 76z m6125
-77 c56 -114 139 -263 159 -286 19 -21 32 -7 32 36 0 19 4 27 13 24 13 -4 12
-68 -4 -129 -18 -70 -41 -62 -98 35 l-42 72 6 -62 c9 -84 -3 -178 -25 -206
l-18 -22 -32 30 c-40 38 -86 116 -135 230 -31 72 -38 102 -38 150 1 72 21 126
58 151 15 11 37 29 49 41 11 13 23 23 26 23 3 0 25 -39 49 -87z m-424 47 c3
-6 -3 -22 -14 -36 -11 -15 -18 -31 -15 -38 22 -40 309 -496 325 -515 19 -24
21 -24 55 -8 31 15 35 15 41 2 3 -9 4 -17 2 -19 -2 -2 -42 -33 -89 -69 -64
-49 -88 -63 -98 -55 -10 9 -8 17 13 38 14 14 25 32 25 38 0 16 -281 476 -286
469 -1 -1 25 -155 56 -342 36 -210 55 -344 49 -350 -6 -6 -88 72 -220 208
-116 120 -213 216 -215 215 -3 -4 138 -403 163 -461 15 -34 20 -38 42 -32 47
11 55 10 58 -5 2 -12 -96 -79 -158 -108 -4 -2 -9 5 -13 14 -4 11 1 22 14 31
11 8 20 22 20 31 0 22 -174 542 -195 583 -15 27 -20 30 -58 27 -28 -2 -42 1
-42 9 0 11 87 73 103 73 4 0 104 -97 222 -215 118 -118 215 -213 217 -211 5 4
-55 347 -88 509 -17 82 -29 150 -27 152 16 16 95 75 100 75 4 0 10 -5 13 -10z
m-5390 -174 c68 -45 55 -116 -38 -209 -127 -127 -298 -176 -397 -114 -28 17
-50 68 -43 98 17 66 133 178 230 221 87 38 193 40 248 4z m262 -163 c3 -7 -24
-39 -59 -73 l-63 -60 90 40 c141 62 201 51 126 -24 -37 -37 -43 -39 -52 -23
-26 45 -162 -8 -283 -110 -123 -105 -117 -101 -154 -91 -18 5 -32 13 -30 17 2
5 32 32 68 60 104 84 250 221 250 237 0 10 -10 12 -45 7 -30 -4 -45 -2 -45 5
0 27 189 41 197 15z"/>
<path d="M4228 10307 c-19 -83 -34 -153 -33 -155 7 -8 175 32 175 42 0 12 -94
254 -102 261 -2 3 -20 -64 -40 -148z"/>
<path d="M5831 10391 c-50 -50 -77 -344 -34 -358 17 -6 87 61 123 116 17 28
37 78 45 117 21 100 20 119 -10 132 -40 19 -102 15 -124 -7z"/>
<path d="M6779 10295 c-25 -14 -59 -77 -73 -137 -7 -32 4 -35 66 -18 80 23
126 95 93 147 -18 26 -47 29 -86 8z"/>
<path d="M5944 7980 c-90 -45 -267 -223 -305 -306 -10 -23 -30 -111 -45 -195
-14 -85 -29 -163 -34 -175 -5 -12 -42 -39 -88 -62 -73 -38 -92 -56 -92 -84 0
-6 29 -7 80 -2 67 5 80 4 80 -8 0 -25 -87 -606 -130 -868 -81 -491 -124 -600
-239 -600 -33 0 -49 7 -80 35 -22 20 -41 32 -44 28 -2 -4 -14 -50 -27 -102
-26 -106 -24 -111 48 -111 108 0 235 121 327 312 70 145 114 338 225 972 33
187 63 342 66 345 3 3 50 5 105 4 l98 -3 16 52 c22 76 21 82 -17 74 -62 -13
-188 -19 -188 -10 0 22 52 306 72 389 11 50 27 103 35 118 21 43 69 67 132 67
50 0 57 -3 97 -44 25 -24 47 -40 50 -35 2 5 18 51 33 103 l29 95 -46 15 c-61
21 -109 20 -158 -4z"/>
<path d="M3100 7933 c-56 -9 -159 -47 -215 -78 -231 -130 -393 -370 -451 -671
-22 -113 -25 -379 -5 -479 32 -162 86 -271 180 -366 109 -108 221 -149 406
-149 131 0 199 15 310 70 136 67 212 142 214 213 1 26 -12 21 -81 -27 -211
-146 -419 -176 -600 -85 -118 59 -218 204 -255 369 -27 118 -24 403 6 539 53
249 164 437 299 505 102 52 240 69 367 45 63 -11 132 -43 203 -91 l42 -29 0
-99 c0 -100 0 -100 25 -100 28 0 24 -14 55 194 11 82 18 152 13 157 -15 15
-139 57 -216 73 -70 15 -234 20 -297 9z"/>
<path d="M6278 7751 c-37 -21 -70 -40 -73 -42 -2 -3 -16 -97 -30 -210 -20
-158 -30 -207 -43 -218 -9 -7 -50 -29 -89 -48 -99 -46 -97 -63 7 -63 74 0 80
-2 80 -20 0 -12 -29 -194 -65 -405 -36 -211 -65 -412 -65 -447 0 -162 93 -145
309 59 80 75 93 92 87 111 -7 21 -11 19 -77 -38 -153 -131 -183 -117 -160 77
11 93 62 429 92 599 l11 64 108 -6 107 -7 7 39 c4 21 10 50 13 63 5 22 4 23
-23 17 -30 -8 -184 -9 -191 -2 -3 2 15 107 38 233 46 245 49 275 34 279 -5 1
-40 -14 -77 -35z"/>
<path d="M3932 7340 c-55 -37 -224 -178 -236 -198 -2 -4 -1 -14 4 -22 7 -11
16 -8 45 16 131 103 148 106 153 25 5 -92 -71 -588 -132 -851 -13 -58 -21
-109 -16 -113 7 -8 116 19 132 32 3 3 23 97 42 208 42 236 79 360 149 497 86
169 182 246 248 197 51 -38 50 -40 70 128 10 86 9 105 -2 112 -73 46 -186 -87
-344 -400 -31 -62 -58 -112 -60 -110 -2 2 10 76 26 164 37 200 49 304 38 333
-13 33 -48 28 -117 -18z"/>
<path d="M4874 7366 c-90 -29 -234 -148 -273 -224 -50 -99 -123 -362 -152
-547 -19 -122 -17 -321 3 -367 18 -41 47 -49 91 -27 42 22 126 100 190 177 57
67 199 275 210 306 2 6 7 9 10 6 3 -3 -5 -61 -19 -129 -13 -67 -29 -165 -35
-217 -10 -84 -9 -97 6 -120 33 -50 103 -18 243 111 51 47 72 74 72 91 0 13 -3
24 -6 24 -3 0 -31 -23 -62 -50 -42 -37 -64 -50 -82 -48 -21 3 -25 9 -28 43 -5
61 23 239 89 565 33 162 65 319 71 347 7 29 9 56 5 60 -4 4 -23 -1 -41 -11
-32 -17 -36 -17 -82 -1 -66 23 -160 28 -210 11z m136 -122 c22 -9 40 -23 40
-31 0 -9 -11 -71 -25 -138 -60 -296 -144 -470 -312 -646 -81 -85 -103 -96
-129 -68 -15 16 -16 35 -11 141 12 251 114 666 177 723 49 44 174 53 260 19z"/>
<path d="M7873 5787 c-32 -37 -57 -96 -98 -232 -26 -88 -89 -222 -126 -269
-11 -14 -58 -40 -111 -61 -195 -78 -333 -191 -313 -255 8 -25 38 -25 94 0 52
24 77 25 85 4 8 -22 7 -111 -3 -161 -5 -24 -5 -43 0 -43 21 0 34 53 39 155 l5
109 44 34 c74 56 76 51 74 -133 -5 -330 -61 -1250 -94 -1545 -22 -204 -50
-317 -109 -445 -62 -135 -176 -302 -312 -456 -32 -37 -58 -72 -58 -78 0 -6 17
-11 39 -11 34 0 52 10 118 62 255 206 444 436 515 628 60 159 97 516 143 1360
27 506 37 624 51 652 21 41 148 99 300 137 179 45 218 71 230 157 l6 39 -29
-31 c-31 -34 -71 -54 -109 -54 l-24 0 26 43 c52 83 90 107 122 75 9 -9 12 -5
12 21 0 18 -5 41 -10 52 -27 49 -84 -1 -145 -124 l-37 -74 -101 -7 c-89 -5
-111 -10 -172 -40 -38 -19 -73 -32 -77 -30 -12 7 -10 202 2 209 18 11 92 146
112 205 10 32 18 76 16 97 -3 36 -5 38 -39 41 -30 3 -41 -2 -66 -31z m65 -35
c-4 -56 -46 -164 -84 -215 -15 -21 -16 -18 -10 53 6 84 25 146 56 191 32 45
43 37 38 -29z"/>
<path d="M3518 5461 c-119 -38 -212 -116 -298 -248 -124 -189 -177 -413 -167
-698 8 -229 54 -370 152 -469 44 -44 90 -69 287 -159 98 -45 158 -103 187
-182 45 -119 45 -371 1 -531 -49 -178 -154 -317 -265 -350 -136 -39 -262 7
-370 136 l-35 42 0 189 0 189 -28 0 -28 0 -12 -162 c-6 -90 -19 -224 -28 -298
l-16 -135 44 -38 c63 -54 164 -104 241 -118 133 -25 269 24 383 136 144 143
266 396 306 639 20 120 15 347 -10 449 -46 185 -109 259 -283 332 -188 79
-258 126 -307 207 -50 84 -65 173 -59 358 7 229 49 365 146 472 54 60 108 89
180 95 108 10 181 -29 248 -134 l33 -52 0 -151 0 -150 29 0 29 0 6 88 c4 48
14 146 22 217 8 72 18 153 21 180 l5 50 -52 39 c-29 22 -75 48 -104 58 -67 23
-183 23 -258 -1z"/>
<path d="M4280 5393 l0 -53 33 0 c18 0 57 -7 86 -16 45 -13 55 -20 68 -52 19
-45 14 -141 -53 -867 -90 -987 -142 -1476 -165 -1558 -11 -42 -52 -67 -108
-67 -54 0 -61 -8 -61 -64 l0 -51 300 0 300 0 0 52 c0 59 10 52 -104 74 -128
24 -133 36 -116 278 19 285 151 1656 201 2098 l12 101 63 16 c226 57 371 -46
419 -298 17 -90 20 -354 5 -461 -27 -185 -98 -375 -174 -462 -73 -84 -180
-107 -276 -58 -27 14 -52 25 -55 25 -3 0 -5 -24 -5 -53 0 -61 14 -79 88 -116
53 -27 151 -30 207 -7 171 72 313 308 386 643 32 150 38 444 11 576 -35 167
-108 294 -195 336 -80 39 -144 44 -367 30 -144 -8 -250 -10 -353 -3 l-147 9 0
-52z"/>
<path d="M6113 5425 c-202 -45 -399 -239 -515 -506 -154 -358 -170 -803 -42
-1171 61 -173 607 -1522 626 -1546 6 -6 21 -12 33 -12 26 0 19 -16 358 820
332 817 355 888 376 1148 27 330 -62 701 -228 952 -50 77 -162 192 -228 236
-113 75 -262 106 -380 79z m241 -561 c96 -25 174 -71 257 -154 83 -82 136
-174 164 -285 19 -76 19 -224 0 -300 -80 -315 -394 -512 -694 -436 -374 94
-561 519 -384 873 70 140 219 261 369 303 69 19 213 18 288 -1z"/>
<path d="M7300 4801 c0 -27 27 -51 56 -51 31 0 30 4 -8 40 -39 35 -48 37 -48
11z"/>
<path d="M9536 8039 c-54 -4 -100 -10 -103 -12 -3 -4 79 -152 92 -165 3 -3
215 178 215 184 0 6 -86 3 -204 -7z"/>
<path d="M960 7528 c-11 -18 -20 -48 -20 -65 0 -28 8 -39 48 -68 52 -39 212
-120 255 -129 23 -6 27 -3 27 16 0 28 -39 88 -94 146 -36 38 -171 132 -189
132 -4 0 -16 -15 -27 -32z"/>
<path d="M10144 5069 c-21 -42 -22 -91 -1 -123 42 -63 262 -216 288 -200 32
19 -26 146 -105 231 -52 56 -137 123 -157 123 -5 0 -16 -14 -25 -31z"/>
<path d="M10063 4693 c-8 -3 -13 -22 -13 -47 0 -50 34 -104 99 -155 l41 -33 0
39 c0 105 -72 215 -127 196z"/>
<path d="M9346 2960 c-40 -49 -35 -83 27 -173 69 -101 154 -197 174 -197 13 0
15 9 9 55 -12 107 -89 261 -164 328 -19 17 -20 17 -46 -13z"/>
<path d="M1597 2519 l-277 -139 16 -31 c33 -64 84 -125 122 -147 74 -41 190
-25 325 46 182 95 250 223 178 333 -44 65 -57 79 -72 78 -8 0 -139 -63 -292
-140z"/>
<path d="M1933 2060 c-35 -16 -63 -33 -63 -38 0 -16 77 -42 121 -42 78 0 138
53 103 91 -25 28 -87 24 -161 -11z"/>
<path d="M8385 1790 c-11 -4 -31 -20 -45 -34 -23 -25 -23 -29 -12 -74 16 -60
103 -238 136 -277 22 -25 27 -28 36 -15 5 8 10 47 10 86 0 78 -26 177 -66 254
-34 66 -37 68 -59 60z"/>
<path d="M2485 1661 c-111 -56 -235 -177 -235 -230 0 -16 9 -36 20 -46 51 -46
157 -1 271 115 86 86 105 129 73 161 -34 32 -64 32 -129 0z"/>
</g>
</svg>
